<svg width="188" height="21" viewBox="0 0 188 21" fill="none" xmlns="http://www.w3.org/2000/svg">
<path d="M11.552 5.14703V16.4551H10.065V8.02322L6.3063 16.4551H5.26111L1.487 8.00673V16.4551H0V5.14703H1.6013L5.78426 14.4944L9.96721 5.14703H11.552ZM14.836 6.04604C14.5524 6.04604 14.3128 5.94823 14.1172 5.7526C13.9205 5.55587 13.8226 5.31628 13.8226 5.03382C13.8226 4.75027 13.9205 4.51068 14.1172 4.31395C14.3128 4.11832 14.5524 4.02051 14.836 4.02051C15.1085 4.02051 15.3404 4.11832 15.5306 4.31395C15.7207 4.51068 15.8163 4.75027 15.8163 5.03382C15.8163 5.31628 15.7207 5.55587 15.5306 5.7526C15.3404 5.94823 15.1085 6.04604 14.836 6.04604ZM15.5547 7.50007V16.4551H14.0677V7.50007H15.5547ZM19.575 8.9552C19.8366 8.44305 20.2092 8.0452 20.6939 7.76165C21.1785 7.47919 21.7698 7.33742 22.4666 7.33742V8.87278H22.0743C20.4081 8.87278 19.575 9.77729 19.575 11.5852V16.4551H18.088V7.50007H19.575V8.9552ZM28.0882 16.6023C27.2485 16.6023 26.4891 16.4111 25.8088 16.0297C25.1274 15.6484 24.5933 15.1065 24.2075 14.4043C23.8206 13.702 23.6272 12.8876 23.6272 11.9611C23.6272 11.0467 23.8261 10.2378 24.2229 9.5344C24.6207 8.83211 25.1626 8.29358 25.8495 7.91661C26.5353 7.54183 27.3035 7.3539 28.153 7.3539C29.0026 7.3539 29.7708 7.54183 30.4566 7.91661C31.1435 8.29358 31.6854 8.82991 32.0832 9.52671C32.48 10.2235 32.6789 11.0357 32.6789 11.9611C32.6789 12.8876 32.4745 13.702 32.0667 14.4043C31.6579 15.1065 31.1051 15.6484 30.4083 16.0297C29.7104 16.4111 28.9378 16.6023 28.0882 16.6023ZM28.0882 15.2945C28.6212 15.2945 29.1224 15.1692 29.5906 14.9186C30.0599 14.668 30.438 14.2921 30.727 13.791C31.015 13.2909 31.16 12.6799 31.16 11.9611C31.16 11.2423 31.0182 10.6323 30.7347 10.1312C30.4511 9.63002 30.0808 9.25744 29.6236 9.01236C29.1664 8.76727 28.6707 8.64418 28.1366 8.64418C27.5925 8.64418 27.0936 8.76727 26.6419 9.01236C26.1891 9.25744 25.8275 9.63002 25.5549 10.1312C25.2824 10.6323 25.1472 11.2423 25.1472 11.9611C25.1472 12.6908 25.2802 13.3063 25.5472 13.8075C25.8143 14.3086 26.1704 14.6823 26.6177 14.9274C27.0639 15.1725 27.5541 15.2945 28.0882 15.2945ZM39.0028 7.33742C40.0919 7.33742 40.9745 7.66713 41.6504 8.32545C42.3252 8.98488 42.6626 9.93555 42.6626 11.1775V16.4551H41.1921V11.3896C41.1921 10.4961 40.969 9.81245 40.5228 9.33877C40.0755 8.86508 39.4655 8.62769 38.6929 8.62769C37.9081 8.62769 37.2839 8.87278 36.8212 9.36295C36.3585 9.85312 36.1266 10.5675 36.1266 11.5039V16.4551H34.6396V7.50007H36.1266V8.77497C36.4211 8.31776 36.8212 7.96387 37.3279 7.71329C37.8345 7.46271 38.3928 7.33742 39.0028 7.33742ZM49.003 16.6023C48.1644 16.6023 47.4039 16.4111 46.7236 16.0297C46.0422 15.6484 45.5091 15.1065 45.1223 14.4043C44.7354 13.702 44.542 12.8876 44.542 11.9611C44.542 11.0467 44.7409 10.2378 45.1387 9.5344C45.5355 8.83211 46.0773 8.29358 46.7642 7.91661C47.45 7.54183 48.2183 7.3539 49.0678 7.3539C49.9174 7.3539 50.6856 7.54183 51.3714 7.91661C52.0583 8.29358 52.6001 8.82991 52.998 9.52671C53.3958 10.2235 53.5948 11.0357 53.5948 11.9611C53.5948 12.8876 53.3903 13.702 52.9815 14.4043C52.5727 15.1065 52.0198 15.6484 51.323 16.0297C50.6263 16.4111 49.8525 16.6023 49.003 16.6023ZM49.003 15.2945C49.5371 15.2945 50.0372 15.1692 50.5065 14.9186C50.9746 14.668 51.3527 14.2921 51.6418 13.791C51.9308 13.2909 52.0748 12.6799 52.0748 11.9611C52.0748 11.2423 51.933 10.6323 51.6495 10.1312C51.367 9.63002 50.9966 9.25744 50.5383 9.01236C50.0811 8.76727 49.5855 8.64418 49.0524 8.64418C48.5073 8.64418 48.0083 8.76727 47.5566 9.01236C47.1049 9.25744 46.7422 9.63002 46.4697 10.1312C46.1982 10.6323 46.0619 11.2423 46.0619 11.9611C46.0619 12.6908 46.1949 13.3063 46.462 13.8075C46.7291 14.3086 47.0851 14.6823 47.5325 14.9274C47.9787 15.1725 48.4688 15.2945 49.003 15.2945ZM58.8888 15.0824L61.6661 7.50007H63.2509L59.7384 16.4551H58.0063L54.4927 7.50007H56.094L58.8888 15.0824ZM64.1664 11.9446C64.1664 11.0302 64.3511 10.2268 64.7215 9.5344C65.0918 8.8431 65.6018 8.30677 66.2491 7.9254C66.8976 7.54403 67.6196 7.3539 68.4142 7.3539C69.199 7.3539 69.8793 7.52206 70.4574 7.85946C71.0343 8.19797 71.4652 8.62219 71.7476 9.13435V7.50007H73.2511V16.4551H71.7476V14.7878C71.4542 15.311 71.0157 15.744 70.4321 16.0869C69.8496 16.4298 69.1715 16.6023 68.3978 16.6023C67.6031 16.6023 66.8844 16.4056 66.2414 16.0133C65.5985 15.622 65.0918 15.0714 64.7215 14.3636C64.3511 13.6558 64.1664 12.8491 64.1664 11.9446ZM71.7476 11.9611C71.7476 11.2863 71.6113 10.6983 71.3388 10.1971C71.0673 9.69596 70.6991 9.31129 70.2365 9.04423C69.7738 8.77826 69.2638 8.64418 68.7088 8.64418C68.1527 8.64418 67.6471 8.77496 67.1888 9.03653C66.7316 9.2981 66.3667 9.67947 66.0942 10.1806C65.8216 10.6818 65.6864 11.2698 65.6864 11.9446C65.6864 12.6315 65.8216 13.2272 66.0942 13.7338C66.3667 14.2405 66.7316 14.6274 67.1888 14.8944C67.6471 15.1615 68.1527 15.2945 68.7088 15.2945C69.2638 15.2945 69.7738 15.1615 70.2365 14.8944C70.6991 14.6274 71.0673 14.2405 71.3388 13.7338C71.6113 13.2272 71.7476 12.637 71.7476 11.9611ZM125.125 10.5884C125.538 10.6543 125.917 10.8236 126.26 11.095C126.603 11.3676 126.876 11.7061 127.077 12.1084C127.278 12.5117 127.379 12.9414 127.379 13.3997C127.379 13.9767 127.232 14.4966 126.938 14.9593C126.644 15.4231 126.216 15.7879 125.656 16.055C125.094 16.321 124.432 16.4551 123.67 16.4551H119.422V5.0657H123.507C124.28 5.0657 124.939 5.19429 125.484 5.45036C126.028 5.70534 126.437 6.05154 126.71 6.48786C126.982 6.92308 127.118 7.41325 127.118 7.95837C127.118 8.63318 126.935 9.1915 126.57 9.63332C126.205 10.074 125.724 10.3928 125.125 10.5884ZM120.909 9.98391H123.408C124.106 9.98391 124.646 9.82015 125.026 9.49374C125.407 9.16732 125.598 8.71561 125.598 8.13752C125.598 7.56052 125.407 7.10882 125.026 6.7813C124.646 6.45489 124.095 6.29113 123.376 6.29113H120.909V9.98391ZM123.539 15.2296C124.28 15.2296 124.858 15.0549 125.271 14.7065C125.685 14.3581 125.892 13.8734 125.892 13.2525C125.892 12.6205 125.674 12.1215 125.239 11.7567C124.803 11.3918 124.22 11.2093 123.491 11.2093H120.909V15.2296H123.539ZM137.379 7.50007V16.4551H135.892V15.1318C135.609 15.589 135.214 15.9462 134.707 16.2012C134.202 16.4573 133.642 16.5858 133.032 16.5858C132.336 16.5858 131.709 16.4408 131.154 16.1528C130.598 15.8638 130.159 15.4308 129.839 14.8538C129.518 14.2768 129.356 13.5734 129.356 12.7458V7.50007H130.827V12.5502C130.827 13.4316 131.051 14.1097 131.497 14.5834C131.943 15.0582 132.553 15.2945 133.327 15.2945C134.123 15.2945 134.749 15.0494 135.206 14.5592C135.663 14.069 135.892 13.3558 135.892 12.4194V7.50007H137.379ZM143.066 16.6023C142.38 16.6023 141.764 16.4847 141.219 16.2506C140.674 16.0165 140.244 15.6901 139.929 15.2703C139.612 14.8505 139.438 14.3691 139.406 13.824H140.941C140.985 14.2702 141.195 14.6361 141.571 14.9186C141.947 15.2022 142.439 15.3439 143.049 15.3439C143.616 15.3439 144.062 15.2186 144.389 14.9681C144.715 14.7175 144.879 14.401 144.879 14.0207C144.879 13.6283 144.705 13.3371 144.356 13.1458C144.007 12.9557 143.468 12.77 142.739 12.582C142.073 12.4106 141.532 12.2315 141.113 12.0512C140.694 11.871 140.333 11.605 140.034 11.2511C139.735 10.8972 139.585 10.4312 139.585 9.85313C139.585 9.39592 139.721 8.97609 139.994 8.59582C140.266 8.21445 140.653 7.91222 141.154 7.68801C141.654 7.46491 142.227 7.3539 142.87 7.3539C143.86 7.3539 144.661 7.60448 145.271 8.10455C145.881 8.60571 146.209 9.29261 146.252 10.1641H144.765C144.732 9.69596 144.544 9.32008 144.201 9.03653C143.858 8.75298 143.397 8.6112 142.82 8.6112C142.286 8.6112 141.862 8.7266 141.546 8.9552C141.23 9.1838 141.072 9.48275 141.072 9.85313C141.072 10.1477 141.167 10.3895 141.358 10.5807C141.549 10.7708 141.788 10.9236 142.077 11.0379C142.365 11.1522 142.766 11.2819 143.278 11.4226C143.921 11.5973 144.444 11.7688 144.847 11.9369C145.249 12.1062 145.596 12.3589 145.885 12.6963C146.173 13.0338 146.327 13.4756 146.333 14.0207C146.338 14.5098 146.197 14.9516 145.925 15.3439C145.653 15.7352 145.269 16.044 144.773 16.2671C144.278 16.4902 143.708 16.6023 143.066 16.6023ZM149.193 6.04604C148.91 6.04604 148.67 5.94823 148.474 5.7526C148.278 5.55587 148.179 5.31628 148.179 5.03382C148.179 4.75027 148.278 4.51068 148.474 4.31395C148.67 4.11832 148.91 4.02051 149.193 4.02051C149.465 4.02051 149.697 4.11832 149.887 4.31395C150.079 4.51068 150.173 4.75027 150.173 5.03382C150.173 5.31628 150.079 5.55587 149.887 5.7526C149.697 5.94823 149.465 6.04604 149.193 6.04604ZM149.911 7.50007V16.4551H148.424V7.50007H149.911ZM156.807 7.33742C157.897 7.33742 158.78 7.66713 159.454 8.32545C160.13 8.98488 160.468 9.93555 160.468 11.1775V16.4551H158.997V11.3896C158.997 10.4961 158.773 9.81245 158.327 9.33877C157.881 8.86508 157.271 8.62769 156.497 8.62769C155.712 8.62769 155.089 8.87278 154.626 9.36295C154.163 9.85312 153.932 10.5675 153.932 11.5039V16.4551H152.445V7.50007H153.932V8.77497C154.225 8.31776 154.626 7.96387 155.132 7.71329C155.639 7.46271 156.197 7.33742 156.807 7.33742ZM171.072 11.6347C171.072 11.9182 171.056 12.2172 171.023 12.5337H163.866C163.921 13.4162 164.223 14.1042 164.773 14.5999C165.323 15.0956 165.99 15.3439 166.774 15.3439C167.417 15.3439 167.954 15.1934 168.384 14.8944C168.814 14.5944 169.117 14.1943 169.291 13.6932H170.892C170.653 14.5537 170.173 15.2538 169.455 15.7934C168.736 16.332 167.842 16.6023 166.774 16.6023C165.926 16.6023 165.165 16.4111 164.495 16.0297C163.825 15.6484 163.3 15.1065 162.919 14.4043C162.537 13.702 162.347 12.8876 162.347 11.9611C162.347 11.0357 162.532 10.2235 162.902 9.52671C163.273 8.82991 163.792 8.29248 164.463 7.91661C165.132 7.54183 165.904 7.3539 166.774 7.3539C167.625 7.3539 168.376 7.53854 169.029 7.90892C169.683 8.2793 170.187 8.78925 170.54 9.43658C170.895 10.085 171.072 10.8181 171.072 11.6347ZM169.536 11.3247C169.536 10.7576 169.411 10.2708 169.16 9.86191C168.91 9.45307 168.569 9.14314 168.139 8.92993C167.708 8.71781 167.232 8.6112 166.709 8.6112C165.957 8.6112 165.318 8.8519 164.789 9.33108C164.261 9.81026 163.958 10.4741 163.882 11.3247H169.536ZM176.203 16.6023C175.517 16.6023 174.901 16.4847 174.356 16.2506C173.811 16.0165 173.382 15.6901 173.066 15.2703C172.75 14.8505 172.576 14.3691 172.543 13.824H174.078C174.122 14.2702 174.332 14.6361 174.708 14.9186C175.084 15.2022 175.576 15.3439 176.186 15.3439C176.753 15.3439 177.2 15.2186 177.526 14.9681C177.852 14.7175 178.016 14.401 178.016 14.0207C178.016 13.6283 177.843 13.3371 177.494 13.1458C177.145 12.9557 176.605 12.77 175.876 12.582C175.211 12.4106 174.67 12.2315 174.25 12.0512C173.831 11.871 173.472 11.605 173.172 11.2511C172.873 10.8972 172.722 10.4312 172.722 9.85313C172.722 9.39592 172.858 8.97609 173.131 8.59582C173.403 8.21445 173.79 7.91222 174.292 7.68801C174.793 7.46491 175.364 7.3539 176.007 7.3539C176.998 7.3539 177.799 7.60448 178.409 8.10455C179.018 8.60571 179.346 9.29261 179.389 10.1641H177.902C177.87 9.69596 177.682 9.32008 177.338 9.03653C176.995 8.75298 176.535 8.6112 175.958 8.6112C175.424 8.6112 174.999 8.7266 174.683 8.9552C174.367 9.1838 174.209 9.48275 174.209 9.85313C174.209 10.1477 174.305 10.3895 174.495 10.5807C174.686 10.7708 174.926 10.9236 175.215 11.0379C175.503 11.1522 175.903 11.2819 176.415 11.4226C177.058 11.5973 177.581 11.7688 177.984 11.9369C178.387 12.1062 178.733 12.3589 179.022 12.6963C179.31 13.0338 179.465 13.4756 179.471 14.0207C179.476 14.5098 179.335 14.9516 179.062 15.3439C178.79 15.7352 178.406 16.044 177.911 16.2671C177.415 16.4902 176.846 16.6023 176.203 16.6023ZM184.732 16.6023C184.046 16.6023 183.43 16.4847 182.886 16.2506C182.341 16.0165 181.911 15.6901 181.595 15.2703C181.279 14.8505 181.104 14.3691 181.072 13.824H182.608C182.652 14.2702 182.862 14.6361 183.238 14.9186C183.612 15.2022 184.106 15.3439 184.716 15.3439C185.282 15.3439 185.729 15.2186 186.056 14.9681C186.382 14.7175 186.546 14.401 186.546 14.0207C186.546 13.6283 186.371 13.3371 186.023 13.1458C185.674 12.9557 185.135 12.77 184.405 12.582C183.74 12.4106 183.199 12.2315 182.779 12.0512C182.361 11.871 182 11.605 181.701 11.2511C181.401 10.8972 181.252 10.4312 181.252 9.85313C181.252 9.39592 181.388 8.97609 181.661 8.59582C181.932 8.21445 182.32 7.91222 182.82 7.68801C183.321 7.46491 183.894 7.3539 184.537 7.3539C185.527 7.3539 186.328 7.60448 186.938 8.10455C187.548 8.60571 187.875 9.29261 187.919 10.1641H186.432C186.399 9.69596 186.211 9.32008 185.868 9.03653C185.525 8.75298 185.064 8.6112 184.487 8.6112C183.953 8.6112 183.529 8.7266 183.212 8.9552C182.897 9.1838 182.739 9.48275 182.739 9.85313C182.739 10.1477 182.834 10.3895 183.024 10.5807C183.216 10.7708 183.455 10.9236 183.743 11.0379C184.032 11.1522 184.432 11.2819 184.945 11.4226C185.586 11.5973 186.111 11.7688 186.513 11.9369C186.916 12.1062 187.262 12.3589 187.55 12.6963C187.839 13.0338 187.994 13.4756 188 14.0207C188.005 14.5098 187.864 14.9516 187.592 15.3439C187.32 15.7352 186.935 16.044 186.439 16.2671C185.944 16.4902 185.375 16.6023 184.732 16.6023Z" fill="white"/>
<path fill-rule="evenodd" clip-rule="evenodd" d="M82.2555 0C80.0157 0 77.9418 0.707783 76.2449 1.91343C78.0396 1.20675 80.0849 0.805596 82.2555 0.805596C84.4272 0.805596 86.4726 1.20675 88.2662 1.91343C86.5693 0.707783 84.4954 0 82.2555 0ZM76.2449 18.8716C77.9418 20.0762 80.0157 20.7851 82.2555 20.7851C84.4954 20.7851 86.5693 20.0762 88.2662 18.8716C86.4726 19.5783 84.4272 19.9784 82.2555 19.9784C80.0849 19.9784 78.0396 19.5783 76.2449 18.8716Z" fill="#F5DAA5"/>
<path fill-rule="evenodd" clip-rule="evenodd" d="M104.792 0C110.532 0 115.185 4.65224 115.185 10.3925C115.185 16.1317 110.532 20.7851 104.792 20.7851C102.35 20.7851 100.106 19.9421 98.3323 18.5331C99.9226 19.6289 101.85 20.2707 103.929 20.2707C109.384 20.2707 113.807 15.8482 113.807 10.3925C113.807 4.93689 109.384 0.514351 103.929 0.514351C101.85 0.514351 99.9226 1.15619 98.3323 2.25194C100.106 0.841865 102.35 0 104.792 0Z" fill="#F5DAA5"/>
<path d="M87.7442 8.39875C87.7442 9.34612 87.4199 10.1341 86.7726 10.7606C86.1242 11.3859 85.1361 11.6992 83.8063 11.6992H81.617V16.4547H80.13V5.06536H83.8063C85.0922 5.06536 86.0703 5.37639 86.7396 5.99734C87.4101 6.6183 87.7442 7.4184 87.7442 8.39875ZM83.8063 10.4737C84.635 10.4737 85.2449 10.2946 85.6373 9.93521C86.0286 9.57583 86.2253 9.06367 86.2253 8.39875C86.2253 6.99417 85.4186 6.29079 83.8063 6.29079H81.617V10.4737H83.8063ZM95.588 16.4547L92.8756 11.7981H91.0776V16.4547H89.5906V5.06536H93.2669C94.1285 5.06536 94.855 5.21263 95.4484 5.50717C96.043 5.80061 96.4859 6.19847 96.7805 6.69963C97.075 7.20079 97.2212 7.7723 97.2212 8.41524C97.2212 9.19995 96.9959 9.89125 96.5431 10.4902C96.0914 11.0892 95.4133 11.4871 94.5088 11.6827L97.3685 16.4547H95.588ZM91.0776 10.6045H93.2669C94.0735 10.6045 94.678 10.4056 95.0814 10.0088C95.4836 9.61099 95.6858 9.08016 95.6858 8.41524C95.6858 7.73933 95.4869 7.21728 95.0891 6.8469C94.6923 6.47652 94.0845 6.29079 93.2669 6.29079H91.0776V10.6045ZM104.689 16.569C103.632 16.569 102.668 16.3206 101.797 15.825C100.925 15.3293 100.236 14.638 99.7303 13.75C99.2237 12.862 98.9698 11.8629 98.9698 10.7518C98.9698 9.64067 99.2237 8.64164 99.7303 7.75361C100.236 6.86559 100.925 6.17429 101.797 5.67862C102.668 5.18295 103.632 4.93457 104.689 4.93457C105.756 4.93457 106.726 5.18295 107.597 5.67862C108.469 6.17429 109.156 6.86339 109.657 7.74482C110.157 8.62735 110.409 9.62968 110.409 10.7518C110.409 11.8739 110.157 12.8762 109.657 13.7588C109.156 14.6402 108.469 15.3293 107.597 15.825C106.726 16.3206 105.756 16.569 104.689 16.569ZM104.689 15.2777C105.484 15.2777 106.2 15.093 106.838 14.7226C107.475 14.3523 107.976 13.8236 108.341 13.1378C108.706 12.4509 108.889 11.6563 108.889 10.7518C108.889 9.8374 108.706 9.03839 108.341 8.35808C107.976 7.67778 107.477 7.15134 106.846 6.78096C106.214 6.41059 105.495 6.22594 104.689 6.22594C103.882 6.22594 103.164 6.41059 102.532 6.78096C101.9 7.15134 101.402 7.67778 101.037 8.35808C100.672 9.03839 100.49 9.8374 100.49 10.7518C100.49 11.6563 100.672 12.4509 101.037 13.1378C101.402 13.8236 101.903 14.3523 102.541 14.7226C103.178 15.093 103.893 15.2777 104.689 15.2777Z" fill="#F5DAA5"/>
</svg>
